<?xml version="1.0" encoding="UTF-8"?>
<svg xmlns="http://www.w3.org/2000/svg" xmlns:xlink="http://www.w3.org/1999/xlink" viewBox="0 0 48 48" width="48px" height="48px">
<defs>
<linearGradient id="linear0" gradientUnits="userSpaceOnUse" x1="35.80825" y1="35.80825" x2="145.537079" y2="145.537079" >
<stop offset="0" style="stop-color:rgb(16.470589%,64.313728%,95.686275%);stop-opacity:1;"/>
<stop offset="1" style="stop-color:rgb(0%,47.843137%,85.09804%);stop-opacity:1;"/>
</linearGradient>
<linearGradient id="linear1" gradientUnits="userSpaceOnUse" x1="35.80825" y1="35.80825" x2="145.537079" y2="145.537079" gradientTransform="matrix(0.252558,0,0,0.252558,2.28,2.28)">
<stop offset="0" style="stop-color:rgb(16.470589%,64.313728%,95.686275%);stop-opacity:1;"/>
<stop offset="1" style="stop-color:rgb(0%,47.843137%,85.09804%);stop-opacity:1;"/>
</linearGradient>
</defs>
<g id="surface22145097">
<path style="fill-rule:nonzero;fill:url(#linear0);stroke-width:18;stroke-linecap:butt;stroke-linejoin:round;stroke:rgb(1.568628%,100%,95.686275%);stroke-opacity:1;stroke-miterlimit:10;" d="M 157.672858 86.000003 C 157.672858 125.579381 125.579381 157.672858 86.000003 157.672858 C 46.420625 157.672858 14.327147 125.579381 14.327147 86.000003 C 14.327147 46.420625 46.420625 14.327147 86.000003 14.327147 C 125.579381 14.327147 157.672858 46.420625 157.672858 86.000003 Z M 157.672858 86.000003 " transform="matrix(0.252558,0,0,0.252558,2.28,2.28)"/>
<path style="fill-rule:nonzero;fill:rgb(100%,100%,100%);fill-opacity:1;stroke-width:18;stroke-linecap:butt;stroke-linejoin:round;stroke:rgb(1.568628%,100%,95.686275%);stroke-opacity:1;stroke-miterlimit:10;" d="M 95.697646 156.930455 C 92.526965 157.363524 89.294417 157.672858 86.000003 157.672858 C 82.349853 157.672858 78.792504 157.301657 75.281554 156.791254 L 75.281554 104.993155 L 57.541208 104.993155 L 57.541208 86.15467 L 75.281554 86.15467 L 75.281554 73.626614 C 75.281554 52.870254 85.3968 43.760346 102.642211 43.760346 C 110.901448 43.760346 115.278534 44.363549 117.351077 44.64195 L 117.351077 61.083091 L 105.580891 61.083091 C 98.265124 61.083091 95.697646 68.027655 95.697646 75.853824 L 95.697646 86.15467 L 117.165476 86.15467 L 114.242263 104.993155 L 95.697646 104.993155 Z M 95.697646 156.930455 " transform="matrix(0.252558,0,0,0.252558,2.28,2.28)"/>
<path style=" stroke:none;fill-rule:nonzero;fill:url(#linear1);" d="M 24 5.898438 C 14.003906 5.898438 5.898438 14.003906 5.898438 24 C 5.898438 33.996094 14.003906 42.101562 24 42.101562 C 33.996094 42.101562 42.101562 33.996094 42.101562 24 C 42.101562 14.003906 33.996094 5.898438 24 5.898438 Z M 24 5.898438 "/>
<path style=" stroke:none;fill-rule:nonzero;fill:rgb(100%,100%,100%);fill-opacity:1;" d="M 26.449219 28.796875 L 31.132812 28.796875 L 31.871094 24.039062 L 26.449219 24.039062 L 26.449219 21.4375 C 26.449219 19.460938 27.097656 17.707031 28.945312 17.707031 L 31.917969 17.707031 L 31.917969 13.554688 C 31.394531 13.484375 30.289062 13.332031 28.203125 13.332031 C 23.847656 13.332031 21.292969 15.632812 21.292969 20.875 L 21.292969 24.039062 L 16.8125 24.039062 L 16.8125 28.796875 L 21.292969 28.796875 L 21.292969 41.878906 C 22.179688 42.007812 23.078125 42.101562 24 42.101562 C 24.832031 42.101562 25.648438 42.023438 26.449219 41.914062 Z M 26.449219 28.796875 "/>
</g>
</svg>
